<svg width="24" height="24" viewBox="0 0 24 24" fill="none" xmlns="http://www.w3.org/2000/svg">
<rect width="24" height="24" rx="4" fill="#5A4FDC"/>
<path d="M6.88462 20H5.80769C5.59348 20 5.38804 19.9157 5.23657 19.7657C5.0851 19.6157 5 19.4122 5 19.2V14.4C5 14.1878 5.0851 13.9843 5.23657 13.8343C5.38804 13.6843 5.59348 13.6 5.80769 13.6H6.88462C7.09883 13.6 7.30427 13.6843 7.45574 13.8343C7.60721 13.9843 7.69231 14.1878 7.69231 14.4V19.2C7.69231 19.4122 7.60721 19.6157 7.45574 19.7657C7.30427 19.9157 7.09883 20 6.88462 20V20ZM14.4231 20H13.3462C13.1319 20 12.9265 19.9157 12.775 19.7657C12.6236 19.6157 12.5385 19.4122 12.5385 19.2V11.2C12.5385 10.9878 12.6236 10.7843 12.775 10.6343C12.9265 10.4843 13.1319 10.4 13.3462 10.4H14.4231C14.6373 10.4 14.8427 10.4843 14.9942 10.6343C15.1457 10.7843 15.2308 10.9878 15.2308 11.2V19.2C15.2308 19.4122 15.1457 19.6157 14.9942 19.7657C14.8427 19.9157 14.6373 20 14.4231 20V20ZM18.1923 20H17.1154C16.9012 20 16.6957 19.9157 16.5443 19.7657C16.3928 19.6157 16.3077 19.4122 16.3077 19.2V7.46667C16.3077 7.25449 16.3928 7.05101 16.5443 6.90098C16.6957 6.75095 16.9012 6.66667 17.1154 6.66667H18.1923C18.4065 6.66667 18.612 6.75095 18.7634 6.90098C18.9149 7.05101 19 7.25449 19 7.46667V19.2C19 19.4122 18.9149 19.6157 18.7634 19.7657C18.612 19.9157 18.4065 20 18.1923 20V20ZM10.6538 20H9.57692C9.36271 20 9.15727 19.9157 9.0058 19.7657C8.85433 19.6157 8.76923 19.4122 8.76923 19.2V4.8C8.76923 4.58783 8.85433 4.38434 9.0058 4.23431C9.15727 4.08429 9.36271 4 9.57692 4H10.6538C10.8681 4 11.0735 4.08429 11.225 4.23431C11.3764 4.38434 11.4615 4.58783 11.4615 4.8V19.2C11.4615 19.4122 11.3764 19.6157 11.225 19.7657C11.0735 19.9157 10.8681 20 10.6538 20V20Z" fill="white"/>
</svg>
