<svg width="127" height="24" viewBox="0 0 127 24" fill="none" xmlns="http://www.w3.org/2000/svg">
<g clip-path="url(#clip0_2_4)">
<path d="M31.8516 21V3.86719H36.4805V17.2617H43.0781V21H31.8516ZM56.332 21L55.4883 17.7891H49.9219L49.0547 21H43.9688L49.5586 3.79688H55.7344L61.3945 21H56.332ZM54.5273 13.9922L53.7891 11.1797C53.7109 10.875 53.5977 10.4414 53.4492 9.87891C53.3008 9.30859 53.1523 8.72266 53.0039 8.12109C52.8633 7.51172 52.7539 7.01172 52.6758 6.62109C52.6055 7.01172 52.5039 7.49609 52.3711 8.07422C52.2461 8.64453 52.1133 9.21094 51.9727 9.77344C51.8398 10.3359 51.7227 10.8047 51.6211 11.1797L50.8828 13.9922H54.5273ZM79.5703 21H73.5L67.2422 8.92969H67.1367C67.1758 9.29688 67.2109 9.73828 67.2422 10.2539C67.2734 10.7695 67.3008 11.2969 67.3242 11.8359C67.3477 12.3672 67.3594 12.8477 67.3594 13.2773V21H63.2578V3.86719H69.3047L75.5391 15.7734H75.6094C75.5859 15.3984 75.5625 14.9648 75.5391 14.4727C75.5156 13.9727 75.4922 13.4688 75.4688 12.9609C75.4531 12.4531 75.4453 12.0039 75.4453 11.6133V3.86719H79.5703V21ZM97.8164 12.0703C97.8164 14.0625 97.4453 15.7188 96.7031 17.0391C95.9609 18.3594 94.9141 19.3516 93.5625 20.0156C92.2188 20.6719 90.6367 21 88.8164 21H83.2734V3.86719H89.2031C91.0469 3.86719 92.6094 4.18359 93.8906 4.81641C95.1719 5.44922 96.1445 6.375 96.8086 7.59375C97.4805 8.8125 97.8164 10.3047 97.8164 12.0703ZM93.0117 12.2344C93.0117 11.1953 92.8711 10.3359 92.5898 9.65625C92.3164 8.96875 91.9023 8.45703 91.3477 8.12109C90.793 7.77734 90.0938 7.60547 89.25 7.60547H87.9023V17.2031H88.9336C90.3398 17.2031 91.3711 16.7969 92.0273 15.9844C92.6836 15.1641 93.0117 13.9141 93.0117 12.2344ZM100.898 21V3.86719H105.551V21H100.898ZM125.297 12.4102C125.297 13.7305 125.137 14.9336 124.816 16.0195C124.504 17.0977 124.012 18.0273 123.34 18.8086C122.668 19.5898 121.805 20.1914 120.75 20.6133C119.695 21.0273 118.434 21.2344 116.965 21.2344C115.527 21.2344 114.281 21.0273 113.227 20.6133C112.18 20.1914 111.316 19.5938 110.637 18.8203C109.957 18.0391 109.453 17.1055 109.125 16.0195C108.797 14.9336 108.633 13.7227 108.633 12.3867C108.633 10.6055 108.926 9.05859 109.512 7.74609C110.105 6.42578 111.02 5.40625 112.254 4.6875C113.488 3.96094 115.066 3.59766 116.988 3.59766C118.941 3.59766 120.527 3.96094 121.746 4.6875C122.973 5.41406 123.871 6.4375 124.441 7.75781C125.012 9.07812 125.297 10.6289 125.297 12.4102ZM113.508 12.4102C113.508 13.4414 113.625 14.3281 113.859 15.0703C114.094 15.8125 114.465 16.3828 114.973 16.7812C115.48 17.1797 116.145 17.3789 116.965 17.3789C117.816 17.3789 118.492 17.1797 118.992 16.7812C119.5 16.3828 119.863 15.8125 120.082 15.0703C120.309 14.3281 120.422 13.4414 120.422 12.4102C120.422 10.8633 120.164 9.64062 119.648 8.74219C119.133 7.84375 118.246 7.39453 116.988 7.39453C116.152 7.39453 115.477 7.59766 114.961 8.00391C114.453 8.41016 114.082 8.98828 113.848 9.73828C113.621 10.4883 113.508 11.3789 113.508 12.4102Z" fill="#1D192C"/>
<path fill-rule="evenodd" clip-rule="evenodd" d="M4 0C1.79086 0 0 1.79086 0 4V20C0 22.2091 1.79086 24 4 24H20C22.2091 24 24 22.2091 24 20V4C24 1.79086 22.2091 0 20 0H4ZM5.80769 20H6.88462C7.09883 20 7.30427 19.9157 7.45574 19.7657C7.60721 19.6157 7.69231 19.4122 7.69231 19.2V14.4C7.69231 14.1878 7.60721 13.9843 7.45574 13.8343C7.30427 13.6843 7.09883 13.6 6.88462 13.6H5.80769C5.59348 13.6 5.38804 13.6843 5.23657 13.8343C5.0851 13.9843 5 14.1878 5 14.4V19.2C5 19.4122 5.0851 19.6157 5.23657 19.7657C5.38804 19.9157 5.59348 20 5.80769 20ZM13.3462 20H14.4231C14.6373 20 14.8427 19.9157 14.9942 19.7657C15.1457 19.6157 15.2308 19.4122 15.2308 19.2V11.2C15.2308 10.9878 15.1457 10.7843 14.9942 10.6343C14.8427 10.4843 14.6373 10.4 14.4231 10.4H13.3462C13.1319 10.4 12.9265 10.4843 12.775 10.6343C12.6236 10.7843 12.5385 10.9878 12.5385 11.2V19.2C12.5385 19.4122 12.6236 19.6157 12.775 19.7657C12.9265 19.9157 13.1319 20 13.3462 20ZM17.1154 20H18.1923C18.4065 20 18.612 19.9157 18.7634 19.7657C18.9149 19.6157 19 19.4122 19 19.2V7.46667C19 7.25449 18.9149 7.05101 18.7634 6.90098C18.612 6.75095 18.4065 6.66667 18.1923 6.66667H17.1154C16.9012 6.66667 16.6957 6.75095 16.5443 6.90098C16.3928 7.05101 16.3077 7.25449 16.3077 7.46667V19.2C16.3077 19.4122 16.3928 19.6157 16.5443 19.7657C16.6957 19.9157 16.9012 20 17.1154 20ZM9.57692 20H10.6538C10.8681 20 11.0735 19.9157 11.225 19.7657C11.3764 19.6157 11.4615 19.4122 11.4615 19.2V4.8C11.4615 4.58783 11.3764 4.38434 11.225 4.23431C11.0735 4.08429 10.8681 4 10.6538 4H9.57692C9.36271 4 9.15727 4.08429 9.0058 4.23431C8.85433 4.38434 8.76923 4.58783 8.76923 4.8V19.2C8.76923 19.4122 8.85433 19.6157 9.0058 19.7657C9.15727 19.9157 9.36271 20 9.57692 20Z" fill="#5A4FDC"/>
</g>
<defs>
<clipPath id="clip0_2_4">
<rect width="127" height="24" fill="white"/>
</clipPath>
</defs>
</svg>
